<svg width="91" height="90" viewBox="0 0 91 90" fill="none" xmlns="http://www.w3.org/2000/svg">
<path d="M9.5 27H0.5V81C0.5 83.387 1.44821 85.6761 3.13604 87.364C4.82387 89.0518 7.11305 90 9.5 90H63.5V81H9.5V27Z" fill="#FF0F00"/>
<path d="M81.5 0H27.5C25.1131 0 22.8239 0.948211 21.136 2.63604C19.4482 4.32387 18.5 6.61305 18.5 9V63C18.5 65.387 19.4482 67.6761 21.136 69.364C22.8239 71.0518 25.1131 72 27.5 72H81.5C83.887 72 86.1761 71.0518 87.864 69.364C89.5518 67.6761 90.5 65.387 90.5 63V9C90.5 6.61305 89.5518 4.32387 87.864 2.63604C86.1761 0.948211 83.887 0 81.5 0ZM41 54V18L72.5 36L41 54Z" fill="#FF0F00"/>
</svg>
