<svg width="100" height="100" viewBox="0 0 100 100" fill="none" xmlns="http://www.w3.org/2000/svg">
<path d="M83.375 24.5563C83.1121 24.3451 82.7967 24.2094 82.4625 24.1637C82.1284 24.118 81.7881 24.1641 81.4781 24.2969L51.2906 37.3688C49.9781 37.9407 48.3344 38.2125 46.6469 38.2125C44.2938 38.2219 41.8594 37.675 40.1625 36.9313C39.6454 36.7135 39.1531 36.4411 38.6938 36.1188C38.8188 36.0563 38.975 35.9875 39.1469 35.9188L66.6031 24.0313L70.6969 25.7813V20.6657C70.7031 20.3009 70.6267 19.9394 70.4736 19.6082C70.3205 19.277 70.0945 18.9847 69.8125 18.7532C69.5507 18.5422 69.2363 18.4066 68.9032 18.3609C68.5701 18.3152 68.2309 18.3611 67.9219 18.4938L37.7344 31.5657C36.8031 31.9407 36.0032 32.4032 35.3281 33.075C34.5465 33.8462 34.1026 34.8958 34.0938 35.9938C34.0938 36.025 34.1031 36.0782 34.1031 36.0782V82.1094L34.0969 82.1719C34.0969 82.1844 34.1063 82.1907 34.1063 82.2032V82.2532H34.1125C34.175 83.8625 34.9875 84.8875 35.7625 85.6125C38.2 87.7625 42.2938 88.9657 46.65 89.0282C48.7125 89.0282 50.8063 88.7157 52.7438 87.8844L82.9407 74.8094C83.7375 74.4657 84.2594 73.6125 84.2594 72.6469V26.4688C84.2642 26.1042 84.1873 25.7431 84.0342 25.4122C83.8812 25.0812 83.6559 24.7888 83.375 24.5563ZM64.2281 15.8063C64.175 15.1188 63.8907 14.4625 63.3844 14.0688C63.1215 13.8576 62.806 13.7219 62.4719 13.6762C62.1378 13.6305 61.7975 13.6766 61.4875 13.8094L31.3 26.875C29.9875 27.4438 28.3406 27.7188 26.6563 27.7188C24.3031 27.725 21.8688 27.1782 20.1719 26.4313C19.6543 26.2171 19.1617 25.9468 18.7031 25.625C18.8281 25.5625 18.9844 25.4938 19.1563 25.425L46.6156 13.5375L50.7094 15.2875V10.1782C50.715 9.81314 50.638 9.45157 50.4844 9.12042C50.3307 8.78927 50.1042 8.49709 49.8219 8.26567C49.5594 8.05475 49.2446 7.91918 48.911 7.87349C48.5774 7.8278 48.2376 7.87371 47.9281 8.00629L17.7406 21.0813C16.8094 21.4563 16.0125 21.9157 15.3344 22.5907C14.5539 23.3623 14.1111 24.4119 14.1031 25.5094C14.1031 25.5469 14.1125 25.5969 14.1125 25.5969V71.775H14.1188C14.1813 73.3844 14.9938 74.4094 15.7688 75.1344C18.2063 77.2844 22.3 78.4844 26.6594 78.5469C27.8433 78.5399 29.0233 78.4122 30.1813 78.1657V36.075C30.15 33.8875 31.025 31.7875 32.5625 30.275C33.6277 29.2418 34.8933 28.4378 36.2813 27.9125L64.2281 15.8063Z" fill="#B336FF"/>
</svg>
