<svg width="87" height="84" viewBox="0 0 87 84" fill="none" xmlns="http://www.w3.org/2000/svg">
<path d="M77.875 62.8334C80.0851 62.8334 82.2047 61.9554 83.7675 60.3926C85.3303 58.8298 86.2083 56.7102 86.2083 54.5V8.66671C86.2083 6.45657 85.3303 4.33695 83.7675 2.77415C82.2047 1.21135 80.0851 0.333374 77.875 0.333374H33.9583C35.4166 2.87504 36.2083 5.75004 36.2083 8.66671H77.875V54.5H40.375V62.8334M57.0416 21.1667V29.5H32.0416V83.6667H23.7083V58.6667H15.375V83.6667H7.04163V50.3334H0.791626V29.5C0.791626 27.2899 1.6696 25.1703 3.2324 23.6075C4.79521 22.0447 6.91482 21.1667 9.12496 21.1667H57.0416ZM27.875 8.66671C27.875 10.8768 26.997 12.9965 25.4342 14.5593C23.8714 16.1221 21.7518 17 19.5416 17C17.3315 17 15.2119 16.1221 13.6491 14.5593C12.0863 12.9965 11.2083 10.8768 11.2083 8.66671C11.2083 6.45657 12.0863 4.33695 13.6491 2.77415C15.2119 1.21135 17.3315 0.333374 19.5416 0.333374C21.7518 0.333374 23.8714 1.21135 25.4342 2.77415C26.997 4.33695 27.875 6.45657 27.875 8.66671Z" fill="#0FA958"/>
</svg>
